<svg width="160" height="73" viewBox="0 0 160 73" fill="none" xmlns="http://www.w3.org/2000/svg">
<path d="M74.1485 2.21725L74.1485 2.21725C73.5557 2.32116 73.0424 2.41126 72.5612 2.49571C70.0815 2.93093 68.4561 3.21621 61.2144 4.46981L61.2138 4.46992C59.6743 4.73135 58.2294 4.9891 57.1407 5.19233C56.5963 5.29395 56.1415 5.38183 55.8088 5.44964C55.6424 5.48357 55.5074 5.51229 55.4073 5.53507C55.3572 5.54648 55.3169 5.55618 55.2862 5.56413C55.2709 5.5681 55.2587 5.57146 55.2494 5.57421L55.2384 5.57758L55.2366 5.57817C55.0665 5.65127 54.8988 5.8181 54.7822 6.03363C54.6653 6.24998 54.6155 6.48641 54.6485 6.67716C54.6845 6.85357 54.8026 7.01402 55.0853 7.16425C55.3751 7.31825 55.8151 7.4483 56.4487 7.56355C57.1184 7.68003 59.5154 8.10131 61.7962 8.50808C64.0766 8.90026 66.7202 9.36506 67.6814 9.53981C68.178 9.62258 68.9126 9.75285 69.6821 9.88931C70.3952 10.0158 71.1384 10.1476 71.7498 10.2518L71.7519 10.2522C72.4872 10.3858 73.6541 10.5915 74.8699 10.8057C75.7683 10.964 76.6934 11.127 77.4908 11.2692C79.3661 11.589 81.8223 12.025 82.9417 12.2285C83.4989 12.3298 84.0777 12.4239 84.5616 12.4925C85.0514 12.5619 85.4294 12.6031 85.5944 12.6031C85.7594 12.6031 86.1374 12.5619 86.6272 12.4925C87.1112 12.4239 87.6899 12.3298 88.2471 12.2285C89.3666 12.025 91.8227 11.589 93.698 11.2692C94.4953 11.127 95.4204 10.964 96.3188 10.8057C97.5346 10.5915 98.7016 10.3858 99.4369 10.2522L99.4378 10.252C103.216 9.58347 104.873 9.29279 109.393 8.50801L109.393 8.50799C111.751 8.10052 113.98 7.70952 114.368 7.62347C114.407 7.61459 114.446 7.60571 114.484 7.59703C114.582 7.57469 114.673 7.55368 114.755 7.53764C114.869 7.51538 114.981 7.49893 115.084 7.50246C115.19 7.5061 115.299 7.53135 115.396 7.60276C115.491 7.67336 115.553 7.77348 115.595 7.88725C115.675 8.10414 115.705 8.43246 115.719 8.89154C115.731 9.2911 115.731 9.81329 115.731 10.4865C115.731 10.6004 115.731 10.7186 115.731 10.8413V10.85C115.731 12.3389 115.731 13.1146 115.637 14.051C115.544 14.9863 115.357 16.0809 114.987 18.2142L114.986 18.2151C114.776 19.3978 114.598 20.4965 114.479 21.3135C114.419 21.7221 114.374 22.059 114.347 22.3C114.333 22.4209 114.324 22.5154 114.32 22.582C114.318 22.6032 114.317 22.6204 114.317 22.634C114.323 22.6395 114.333 22.6468 114.347 22.6557C114.389 22.6829 114.453 22.7131 114.541 22.7436C114.715 22.8044 114.956 22.8565 115.234 22.8937C115.79 22.9681 116.46 22.9779 116.981 22.8944L116.985 22.894C117.159 22.869 117.326 22.8442 117.474 22.8222C117.542 22.8122 117.605 22.8027 117.663 22.7942C117.756 22.7805 117.836 22.769 117.898 22.7608C117.91 22.7593 117.921 22.7578 117.933 22.7564C117.936 22.6549 117.924 22.4744 117.883 22.1643C117.796 21.507 117.594 20.3315 117.223 18.2589L117.223 18.2588L116.496 14.1898L116.493 14.1724V14.1546V10.042C116.493 8.09808 116.49 7.07863 116.452 6.50935C116.433 6.22371 116.407 6.06872 116.375 5.97281C116.347 5.88931 116.315 5.84874 116.261 5.79472C116.223 5.7563 116.198 5.72927 116.18 5.70885C116.143 5.66827 116.13 5.65376 116.079 5.62765C115.992 5.5832 115.821 5.52899 115.402 5.44025C114.693 5.29006 113.339 5.05316 110.641 4.58104C110.191 4.50229 109.703 4.417 109.175 4.32447C107.547 4.04155 105.924 3.76178 104.591 3.53197C103.118 3.27802 101.999 3.08509 101.617 3.01636L101.616 3.01623C100.905 2.8856 99.0315 2.55154 97.4776 2.29015L97.4758 2.28983C95.9214 2.01381 92.5794 1.43259 90.0652 0.996611L90.0641 0.996414C88.8073 0.771202 87.6561 0.567837 86.8138 0.422619C86.3926 0.349993 86.0492 0.292006 85.8086 0.253119C85.6882 0.233648 85.5945 0.219131 85.5302 0.209982C85.4977 0.20537 85.4744 0.20237 85.4595 0.200764C85.4585 0.200655 85.4575 0.200558 85.4567 0.20047C85.4541 0.200844 85.4503 0.201416 85.445 0.202272C85.4289 0.204882 85.4061 0.20892 85.3766 0.214403C85.3177 0.225336 85.2369 0.241035 85.1385 0.26018L85.1381 0.260254C84.9423 0.298319 84.6802 0.349293 84.396 0.400318C83.4197 0.589718 81.5987 0.910202 74.1485 2.21725ZM85.4488 0.199747L85.4491 0.199768L85.4488 0.199747Z" fill="#5926EA" stroke="white" stroke-width="0.4"/>
<path d="M67.5352 25.9666V19.2702C67.5352 15.9902 67.5388 14.26 67.5731 13.3578C67.5866 13.0041 67.6045 12.7942 67.6242 12.6726C67.6504 12.6781 67.6781 12.6837 67.7066 12.6894C67.8122 12.7103 67.9477 12.7352 68.1027 12.7625C68.4131 12.8173 68.8068 12.8829 69.2066 12.9484C69.2598 12.9571 69.3137 12.9659 69.3681 12.9748C70.138 13.1006 71.0145 13.244 71.3726 13.3235L71.3813 13.3254L71.3813 13.3253C72.1676 13.4709 84.0713 15.5493 85.0617 15.7095L85.0675 15.7105L85.0675 15.7104C85.2054 15.7294 85.4252 15.7205 85.7175 15.693C86.018 15.6648 86.4192 15.6141 86.9341 15.5394C87.9642 15.3899 89.4604 15.1423 91.5388 14.779L91.5392 14.7789C98.6317 13.529 100.286 13.2387 102.058 12.9483L102.06 12.948C102.438 12.8826 102.813 12.817 103.112 12.7623C103.293 12.7291 103.455 12.6986 103.572 12.6738C103.591 12.7976 103.607 13.0088 103.62 13.3609C103.653 14.2671 103.656 16.0049 103.656 19.2992V26.015L101.62 25.9377C100.119 25.8794 98.8797 25.9077 98.0574 26.0273L98.0557 26.0275C96.3307 26.2907 93.7477 26.9635 92.7294 27.4276M67.5352 25.9666L92.8328 27.6553M67.5352 25.9666H70.3079C71.7001 25.9666 72.4926 25.9736 73.1412 26.0292C73.7957 26.0853 74.3006 26.1906 75.1164 26.3799L75.1164 26.3799L75.1178 26.3803C77.2737 26.8936 79.3914 27.7159 80.9871 28.6763L80.9883 28.677C82.5329 29.6184 83.1002 30.067 84.58 31.5321M67.5352 25.9666L84.4041 31.7097M92.7294 27.4276C92.7293 27.4277 92.7292 27.4277 92.7291 27.4278L92.8328 27.6553M92.7294 27.4276C92.7295 27.4276 92.7297 27.4275 92.7299 27.4274L92.8328 27.6553M92.7294 27.4276C92.5071 27.528 92.289 27.6209 92.1205 27.6883C92.0359 27.7222 91.9657 27.7488 91.9147 27.7666C91.8889 27.7755 91.8707 27.7813 91.8593 27.7845C91.859 27.7846 91.8588 27.7847 91.8586 27.7847M92.8328 27.6553C92.3823 27.8587 91.9463 28.0331 91.8882 28.0331C91.8155 28.0331 91.1034 28.4255 90.3187 28.9195M91.8586 27.7847C91.8679 27.7837 91.8779 27.7831 91.8882 27.7831C91.8719 27.7831 91.8591 27.785 91.8532 27.7862M91.8586 27.7847C91.8563 27.7853 91.8546 27.7858 91.8532 27.7862M91.8586 27.7847C91.8264 27.7882 91.8012 27.7963 91.7918 27.7992L91.7913 27.7994C91.7722 27.8055 91.753 27.813 91.7356 27.8203C91.7003 27.835 91.6578 27.8551 91.6111 27.8784C91.5168 27.9254 91.3925 27.9921 91.2482 28.073C90.9593 28.2349 90.5821 28.4583 90.187 28.707M91.8532 27.7862C91.8507 27.7868 91.8496 27.787 91.8497 27.7869C91.8498 27.7869 91.8511 27.7866 91.8532 27.7862ZM90.187 28.707C90.1875 28.7067 90.188 28.7064 90.1886 28.7061L90.3187 28.9195M90.187 28.707C88.6435 29.648 87.4642 30.5915 86.1852 31.9293L86.1843 31.9303L85.6042 32.5439M90.187 28.707C90.1865 28.7074 90.186 28.7077 90.1855 28.708L90.3187 28.9195M90.3187 28.9195L85.6042 32.5439M85.6042 32.5439L85.7821 32.7197L86.3659 32.1021L85.6042 32.5439ZM85.6042 32.5439L85.4324 32.7256L84.4041 31.7097M85.6042 32.5439L84.58 31.5321M84.58 31.5321L84.4041 31.7097M84.58 31.5321L84.5798 31.5319L84.4041 31.7097M103.656 26.2652L103.906 26.2747V26.0245L103.656 26.2652ZM103.545 12.5545C103.545 12.5545 103.545 12.5555 103.546 12.5574C103.546 12.5554 103.545 12.5545 103.545 12.5545ZM67.6499 12.5626C67.6509 12.5609 67.6513 12.5599 67.6513 12.5598C67.6512 12.5597 67.6508 12.5606 67.6499 12.5626Z" fill="#5926EA" stroke="white" stroke-width="0.5"/>
<path d="M73.2809 28.9635L73.2813 28.9634C73.9912 28.852 75.1561 28.8647 76.1538 29.0215L76.1566 29.022C79.8674 29.5622 82.9754 31.8926 84.4362 35.1971L84.4362 35.1972C84.5192 35.3849 84.588 35.5372 84.6506 35.6558C84.7121 35.7723 84.7782 35.8774 84.8631 35.9565C85.0625 36.1423 85.2962 36.1212 85.5035 36.1005L85.5053 36.1003C85.6151 36.0885 85.7306 36.0697 85.8446 36.0167C85.9621 35.9621 86.0599 35.8803 86.1533 35.7691C86.3278 35.5614 86.5194 35.2087 86.8196 34.6298L86.82 34.629C87.6277 33.0561 88.9922 31.563 90.5112 30.5834C92.6961 29.1788 95.5102 28.6099 98.0942 29.0501C100.497 29.4625 102.354 30.4398 104.091 32.1908C105.39 33.5183 106.023 34.5054 106.62 36.1548L106.621 36.1557C106.807 36.6638 106.91 37.0102 106.977 37.4382C107.046 37.8723 107.078 38.3959 107.114 39.2612C107.186 41.5838 106.958 42.8047 106.168 44.3992C106.062 44.5985 105.657 45.2021 105.051 46.0687C104.448 46.9307 103.658 48.0353 102.8 49.2181C101.086 51.582 99.1028 54.2538 97.7977 55.9218C97.734 55.9962 97.5619 56.225 97.3419 56.5195C97.2635 56.6244 97.178 56.7391 97.0873 56.8608C96.9103 57.0981 96.7137 57.3619 96.512 57.6308L96.509 57.6348L96.5091 57.6348C95.9108 58.4666 95.3231 59.2395 95.2173 59.3586L95.2076 59.3694L95.1993 59.3813C95.1531 59.4474 95.0458 59.5886 94.9074 59.7709C94.7427 59.9878 94.5339 60.2629 94.3311 60.5387C94.1595 60.7711 94.015 60.9486 93.8901 61.079C93.7635 61.2111 93.6679 61.2831 93.5961 61.3181C93.5315 61.3496 93.4944 61.3477 93.4659 61.3397C93.4285 61.3291 93.3709 61.2972 93.288 61.2113L93.2848 61.208L93.2848 61.208C93.2358 61.159 93.1995 61.1163 93.1606 60.9868C93.1165 60.8399 93.0742 60.5954 93.0279 60.1458C92.936 59.2515 92.8346 57.6167 92.6455 54.4966C92.5583 52.9699 92.4674 51.5589 92.391 50.5182C92.3528 49.998 92.3181 49.5691 92.2893 49.2641C92.2749 49.1119 92.2617 48.9884 92.2501 48.899C92.2443 48.8547 92.2385 48.8155 92.2326 48.7842C92.2297 48.7688 92.2261 48.7515 92.2215 48.7347L92.2212 48.7337C92.2189 48.7253 92.2103 48.6932 92.1904 48.6592C92.1317 48.5582 92.0324 48.5028 91.9262 48.4948C91.8356 48.4879 91.7532 48.5157 91.6923 48.5436C91.5679 48.6006 91.4317 48.7063 91.2945 48.8359M73.2809 28.9635L91.4659 49.0179M73.2809 28.9635C68.6095 29.6898 65.1327 32.8023 64.0246 37.2348L64.0244 37.2358C63.6006 38.9027 63.6995 41.3537 64.2233 42.997C64.6961 44.4285 65.9627 46.4342 67.4733 48.3031C68.9836 50.1714 70.7056 51.8633 72.0636 52.6838C73.5507 53.5746 74.8041 54.0603 75.9832 54.1788C77.1571 54.2967 78.2799 54.0527 79.5112 53.4442C80.2678 53.0693 80.9055 52.6082 82.0129 51.4146C83.1262 50.2147 84.7004 48.2898 87.3324 44.9963C88.7065 43.2732 89.8922 41.8219 90.7587 40.7916C91.1917 40.2767 91.5462 39.8656 91.805 39.5778C91.9342 39.4342 92.0415 39.3192 92.1239 39.2366C92.1648 39.1956 92.2022 39.1599 92.2347 39.132C92.2569 39.1128 92.3063 39.0703 92.3643 39.048L92.3724 39.0449L92.3806 39.0424C92.6083 38.9723 93.0336 38.9441 93.326 38.9441V38.944L93.3353 38.9443C93.5109 38.9508 93.6368 38.9339 93.7449 38.8952C93.8523 38.8567 93.9589 38.7908 94.0872 38.6755C94.2032 38.5675 94.3282 38.4657 94.4391 38.389C94.4946 38.3507 94.5508 38.3157 94.6036 38.2891C94.6422 38.2697 94.7117 38.2373 94.7896 38.2326C95.1591 38.1933 95.4969 38.2652 95.7509 38.4569C96.0114 38.6535 96.1537 38.9538 96.1627 39.304L96.1628 39.304V39.3104C96.1628 39.314 96.1628 39.3177 96.1628 39.3217C96.1629 39.3656 96.1632 39.4313 96.1457 39.5087C96.1267 39.5927 96.0903 39.6788 96.0327 39.782C95.9206 39.9827 95.702 40.2926 95.2812 40.8428C94.435 41.9493 92.7305 44.0789 89.3003 48.3649L89.2923 48.3748L89.2922 48.375C87.7085 50.351 86.252 52.1816 85.1806 53.5363C84.6449 54.2136 84.2057 54.7718 83.895 55.1695C83.7396 55.3684 83.6168 55.5268 83.5302 55.6397C83.4869 55.6963 83.4531 55.7408 83.4291 55.773C83.4123 55.7956 83.4032 55.8083 83.3991 55.814C83.3978 55.8158 83.397 55.8169 83.3967 55.8174C83.2893 56.0086 83.3269 56.2191 83.4382 56.3591C83.5461 56.4948 83.694 56.5376 83.8391 56.4614C83.8413 56.4596 83.8526 56.4506 83.8758 56.4289C83.9071 56.3997 83.9487 56.3582 84.0003 56.3044C84.1031 56.1972 84.2386 56.0484 84.3972 55.8682C84.7142 55.508 85.1187 55.0277 85.5307 54.5144L85.5319 54.513C86.5002 53.3246 87.7736 52.0076 88.9733 50.9249M73.2809 28.9635L89.1408 51.1105M91.2945 48.8359C91.2944 48.836 91.2943 48.8361 91.2942 48.8361L91.4659 49.0179M91.2945 48.8359C91.2947 48.8358 91.2948 48.8356 91.2949 48.8355L91.4659 49.0179M91.2945 48.8359C91.1689 48.9536 90.8041 49.2806 90.3287 49.7068C89.9296 50.0646 89.4524 50.4924 88.9733 50.9249M91.4659 49.0179C91.339 49.1369 90.9695 49.4681 90.4899 49.8981C90.091 50.2557 89.6159 50.6816 89.1408 51.1105M88.9733 50.9249L89.1408 51.1105M88.9733 50.9249C88.9733 50.9249 88.9732 50.925 88.9732 50.925L89.1408 51.1105M85.8354 43.4899L85.8345 43.491C85.5562 43.8425 84.3756 45.2564 84.1095 45.5521L84.1098 45.5523L84.1005 45.5616C84.0651 45.597 83.95 45.7287 83.7802 45.9246C83.7537 45.9551 83.7262 45.9869 83.6977 46.0199C83.5488 46.1917 83.3742 46.3933 83.1971 46.5949C83.1967 46.5953 83.1963 46.5958 83.196 46.5962L82.428 47.4946L82.3279 47.6117L82.1783 47.5749L81.3523 47.3721C80.9009 47.2703 78.6412 46.8068 76.3209 46.3717L76.3191 46.3714C74.0174 45.9226 71.9376 45.4983 71.7206 45.4363L71.7206 45.4364L71.7126 45.4339C71.6805 45.4235 71.6465 45.4115 71.615 45.3974C71.5879 45.3852 71.5418 45.3627 71.5013 45.3243C71.4579 45.2832 71.3828 45.1824 71.4228 45.0456C71.4531 44.9415 71.5338 44.8898 71.5616 44.8729C71.6303 44.8313 71.7267 44.802 71.8248 44.7771C71.9321 44.7499 72.0744 44.7202 72.2563 44.6867C72.9818 44.5529 74.409 44.3449 76.9854 43.9748L76.9856 43.9748C77.167 43.9489 77.3533 43.9223 77.5431 43.8952C79.4833 43.6182 81.7841 43.2897 82.8673 43.1179L82.8707 43.1174C84.0696 42.9441 85.2461 42.782 85.4765 42.7667L85.4765 42.7665L85.4843 42.7663L85.496 42.7658C85.5875 42.7626 85.674 42.7595 85.7393 42.7634C85.7727 42.7654 85.82 42.77 85.8671 42.7859C85.9142 42.8019 85.999 42.8425 86.0441 42.9417C86.0874 43.037 86.0654 43.1245 86.0507 43.1665C86.0352 43.211 86.0117 43.2503 85.9929 43.2791C85.9564 43.3352 85.9017 43.4052 85.8422 43.4812L85.8354 43.4899ZM71.8151 44.939C71.8151 44.939 71.8158 44.9394 71.8173 44.9401C71.8159 44.9393 71.8151 44.9389 71.8151 44.939Z" fill="#D43355" stroke="white" stroke-width="0.5"/>
<path d="M149.683 31.5061C149.683 31.5787 149.378 32.2908 149.014 33.0755C148.637 33.8603 148.026 35.1827 147.634 36.011C147.242 36.8394 146.922 37.5369 146.922 37.5805C146.922 37.6096 146.559 38.3943 146.123 39.3099C145.687 40.2399 145.323 41.0101 145.323 41.0392C145.323 41.0682 145.033 41.6931 144.684 42.4488C144.335 43.19 143.55 44.9048 142.925 46.2708C142.315 47.6223 141.748 48.7994 141.676 48.8866C141.603 48.9592 141.545 49.2063 141.545 49.4243V49.8457L143.826 49.8021L146.094 49.7585L146.66 48.625L147.212 47.506H150.831H154.435L154.973 48.6686L155.525 49.8312H157.763H160.001V49.4824C160.001 49.1627 159.681 48.3634 158.664 46.1981C158.417 45.675 157.211 43.0592 155.975 40.3852C154.74 37.7113 153.432 34.8921 153.069 34.1364C152.72 33.3807 152.284 32.4507 152.124 32.0728L151.834 31.3753H150.758C150.163 31.3753 149.683 31.4334 149.683 31.5061ZM151.863 41.1118C152.357 42.2744 152.793 43.3062 152.836 43.3934C152.895 43.5387 152.444 43.5823 150.86 43.5823C149.465 43.5823 148.811 43.5242 148.811 43.4225C148.811 43.2917 149.218 42.2744 150.511 39.2372C150.628 38.9756 150.773 38.8012 150.846 38.8739C150.904 38.9465 151.369 39.9493 151.863 41.1118Z" fill="white"/>
<path d="M0 40.6758V49.8311H2.32515H4.6503V45.8638C4.6503 43.6694 4.6939 41.8529 4.73749 41.8093C4.78109 41.7512 5.68209 42.6231 6.72841 43.7421C7.77472 44.8465 8.73385 45.762 8.87917 45.762C9.00996 45.762 10.0127 44.832 11.1026 43.713L13.079 41.664V45.7475V49.8311L15.4477 49.802L17.8019 49.7584L17.8455 40.6322L17.8746 31.5205H17.0172C16.2034 31.5205 16.1453 31.5496 15.6221 32.1308C15.3169 32.4796 14.7356 33.119 14.3287 33.555C13.9218 33.991 12.5413 35.4878 11.277 36.8538C10.0127 38.2344 8.9373 39.3679 8.86464 39.3679C8.73385 39.3679 8.41414 39.0046 4.50498 34.674L1.6712 31.5205H0.842867H0V40.6758Z" fill="white"/>
<path d="M20.4893 31.9129C20.4893 32.1454 20.7654 32.7412 21.0996 33.2644C21.4193 33.7875 22.7999 35.9964 24.1514 38.1617L26.5928 42.129V45.98V49.8311H28.9179H31.2431V45.9364V42.0563L34.2948 37.188C36.3439 33.9183 37.3466 32.189 37.3466 31.9129V31.5205L34.8471 31.5496L32.3475 31.5931L30.7199 34.5722C29.8189 36.2144 29.0051 37.5659 28.8889 37.5949C28.7871 37.6095 28.6273 37.4787 28.5546 37.3043C28.3948 36.9701 27.4938 35.2843 26.2004 32.901L25.4738 31.5931L22.9888 31.5496L20.4893 31.5205V31.9129Z" fill="white"/>
<path d="M47.8125 40.6758V49.8311H50.1377H52.4628V46.4305C52.4628 44.5559 52.5064 42.9864 52.5791 42.9428C52.6372 42.9137 53.0732 42.8556 53.5527 42.8411L54.4101 42.7975L56.401 46.2852L58.3919 49.7584L60.9496 49.802C63.144 49.8311 63.5218 49.802 63.5945 49.6131C63.6962 49.3806 63.4346 48.9301 60.47 44.1344C59.5109 42.565 58.7116 41.2135 58.7116 41.1553C58.7116 41.0827 59.0749 40.7194 59.5109 40.3415C61.1676 38.9028 61.8361 37.3334 62.0395 34.3688C62.1122 33.3951 62.1558 32.3779 62.1558 32.1018L62.1267 31.5931L59.787 31.5496L57.4473 31.5205L57.3601 33.3661C57.1858 36.9555 56.2266 38.2198 53.4801 38.4523L52.4628 38.5395V35.0227V31.5205H50.1377H47.8125V40.6758Z" fill="white"/>
<path d="M109.719 40.6612V49.8311H112.044H114.369V47.1426V44.4541H115.648H116.912L118.467 47.1135L120.008 49.7584L122.638 49.802C125.123 49.8311 125.268 49.8165 125.268 49.5695C125.268 49.4242 124.454 47.9709 123.466 46.3724L121.65 43.4369L122.449 42.6376C123.437 41.664 124.077 40.327 124.28 38.8883C124.658 36.2434 123.292 33.4678 121.068 32.3343C119.76 31.6513 119.441 31.6222 114.485 31.5641L109.719 31.5059V40.6612ZM118.816 36.0109C119.383 36.3597 119.746 37.1154 119.746 37.9873C119.746 38.8592 119.383 39.6149 118.816 39.9637C118.438 40.1962 118.06 40.2398 116.374 40.2398H114.369V37.9873V35.7348H116.374C118.06 35.7348 118.438 35.7784 118.816 36.0109Z" fill="white"/>
<path d="M128.174 40.6758V49.8311H133.987H139.8V47.7965V45.762L136.283 45.733L132.751 45.6894V44.0908V42.4923L135.847 42.4487L138.928 42.4196V40.3851V38.3506H135.803H132.679V37.0427V35.7348L136.065 35.7058L139.436 35.6622L139.48 33.5841L139.523 31.5205H133.841H128.174V40.6758Z" fill="white"/>
<path d="M87.7753 54.4344L87.7754 54.4343L87.7765 54.4375C87.9341 54.8578 88.0229 55.148 88.0048 55.6353C87.9876 56.0981 87.8739 56.7444 87.6573 57.8852L87.6572 57.8857C87.1635 60.4557 85.7259 68.2971 85.5218 69.4486C85.4638 69.7964 85.4055 70.0526 85.3302 70.2254C85.2919 70.3133 85.2409 70.3996 85.166 70.465C85.0838 70.5369 84.986 70.5717 84.883 70.5717C84.7523 70.5717 84.6773 70.6112 84.6332 70.6554C84.5868 70.7018 84.5493 70.7785 84.5422 70.8947C84.5276 71.1325 84.6474 71.4854 84.9623 71.8204C85.1652 72.0305 85.2851 72.1294 85.3716 72.1739C85.4343 72.2061 85.4771 72.21 85.5552 72.1886C85.5901 72.1782 85.6422 72.1648 85.6721 72.1571C85.6831 72.1543 85.6912 72.1522 85.6942 72.1514C85.7211 72.1438 85.7343 72.1383 85.7484 72.1299C85.7859 72.1076 85.8549 72.0498 86.0213 71.847C86.2795 71.5324 86.7191 70.9377 87.5771 69.7766C87.8063 69.4666 88.0654 69.1161 88.3588 68.7197L88.3591 68.7193C89.8518 66.7126 90.5736 65.7395 90.9873 65.1817C91.4272 64.5886 91.5189 64.4649 91.8188 64.0676L91.8195 64.0667C92.1779 63.5963 92.3174 63.3747 92.3546 63.1912C92.3875 63.0294 92.3456 62.8669 92.1685 62.4757L92.1683 62.4758L92.1647 62.4669C92.0858 62.2733 91.9455 61.9471 91.7831 61.5693C91.6148 61.1779 91.4226 60.731 91.2503 60.3189C91.191 60.1794 91.133 60.0427 91.0761 59.9088C89.7154 56.7046 89.0303 55.0912 88.628 54.2762C88.4141 53.843 88.2971 53.6729 88.223 53.6043C88.1954 53.5787 88.1823 53.5756 88.1758 53.5741L88.1756 53.574C88.1577 53.5698 88.1366 53.5691 88.0656 53.5691C88.0656 53.5691 88.0655 53.5691 88.0654 53.5691C88.0621 53.5697 88.0178 53.5777 87.9403 53.6218C87.8679 53.6629 87.7953 53.7194 87.7426 53.7772C87.6193 53.915 87.6196 53.9352 87.6198 53.9491C87.6198 53.9499 87.6199 53.9506 87.6198 53.9514C87.6195 53.9715 87.6243 54.0114 87.6505 54.095C87.6763 54.1776 87.7167 54.2841 87.7753 54.4344Z" fill="#D43355" stroke="white" stroke-width="0.5"/>
<path d="M79.9197 55.6332L79.9249 55.6277C80.1014 55.4441 80.1503 55.4312 80.1553 55.4299L80.1555 55.4298L80.1556 55.4298C80.1609 55.4284 80.2097 55.4152 80.4507 55.4834C80.4552 55.4863 80.4776 55.4994 80.5167 55.5351C80.5725 55.586 80.6366 55.6597 80.6977 55.7477C80.7585 55.8354 80.8084 55.926 80.8415 56.0058C80.8579 56.0453 80.8685 56.0782 80.8747 56.1036C80.8767 56.1117 80.878 56.1184 80.879 56.1236C80.8747 56.1336 80.8661 56.1512 80.8497 56.1766C80.8106 56.2372 80.747 56.3105 80.6643 56.3823C80.5823 56.4537 80.4939 56.5125 80.4141 56.5514C80.3747 56.5706 80.3415 56.5829 80.3156 56.5901C80.303 56.5936 80.2932 56.5956 80.2863 56.5966L79.9197 55.6332ZM79.9197 55.6332L79.9142 55.6385C79.5288 56.0157 79.7969 56.5976 80.2766 56.5977L79.9197 55.6332Z" fill="#37474F" stroke="white"/>
<path d="M76.9024 59.4128L76.8994 59.4139C76.4377 59.5794 76.3864 60.1413 76.6484 60.3649L76.6484 60.3649L76.653 60.3689C77.0235 60.6932 77.5385 60.4659 77.5385 59.9605C77.5385 59.7947 77.4497 59.6242 77.3012 59.5088C77.1512 59.3923 77.0024 59.3762 76.9024 59.4128Z" fill="#37474F" stroke="white"/>
<path d="M73.448 63.5161L73.4481 63.5162L73.4438 63.5221C73.2429 63.8016 73.2889 64.0822 73.4792 64.2584L73.4793 64.2584L73.4846 64.2635C73.7481 64.5148 74.0453 64.4747 74.2465 64.303C74.3498 64.2149 74.4111 64.103 74.4266 63.9948C74.4407 63.896 74.4221 63.7655 74.3013 63.6118L74.3013 63.6118L74.2998 63.6099C74.2042 63.4869 74.0242 63.3983 73.8192 63.3902C73.6068 63.3818 73.4871 63.46 73.448 63.5161Z" fill="#37474F" stroke="white"/>
</svg>
